<svg width="100%" height="100%" viewBox="0 0 192 192" xmlns="http://www.w3.org/2000/svg">
  <path d="M34 95.8c-4.8 5.6-9.2 11.5-10 18.1-0.5 5.3 0.8 9.8 6.8 11.7 7.7 2.3 15.4 0.5 23-1.4 10.6-2.7 20.9-6.5 31.7-9.9-17.3-14.3-34.1-28.9-51.5-43.2-11.5 9.5-23.8 18.1-35.5 27.4-3.8 2.9-3.6 3.3-0.6 6.8 17.1 20.7 44.5 31.3 60.5 9 3.8-5.3 6.7-11.2 10.1-17.1-11.3-0.4-22.4 0.7-33.5 4.6-0.3-2 0.5-3.2 1.5-4.3 4.4-3.5 8.9-6.9 13.3-10.4 5.6-4.4 11.1-8.9 16.9-13 1.9-1.3 3.1-1.5 4.7 0.5 23.4 29.5 60.4 44.7 98.4 34.5 3.5-0.9 3.5-0.9 3.4-4.4-0.1-1.7-0.9-3-1.9-4.1-25.4-28.4-61.6-37.1-96.8-30.1-5.7 1.1-11.3 2.7-16.9 4.5-1.9 0.6-2.5 0.5-3.3-1.3-3-6.3-6.2-12.5-9.3-18.8-0.8-1.5-1.6-2.1-3.4-2-16.9 0.8-31 7.7-43.7 17.7-1 0.8-1.7 2-2.7 2.9-0.8 0.6-1.1 1.4-0.6 2.4 0.4 0.9 1.2 1.2 2.2 0.6 2.1-1.2 4.1-2.5 6.2-3.8 11.6-7.2 23.9-11.8 37.5-12.5 2.1-0.1 2.8 0.3 3.6 2.3 3.7 8.4 7.5 16.7 11.5 25.6-9.7 3.1-19.1 7-28.3 11.2z" fill="currentColor"/>
</svg> 